<?xml version="1.0"?>
<svg xmlns="http://www.w3.org/2000/svg" height="512px" version="1.1" viewBox="0 0 512 512" width="512px" class=""><g><g id="surface1">
<path d="M 45 512 L 467 512 C 491.8125 512 512 491.8125 512 467 L 512 227 C 512 202.1875 491.8125 182 467 182 L 331 182 L 331 152 L 346 152 C 354.285156 152 361 145.285156 361 137 L 361 15 C 361 6.714844 354.285156 0 346 0 L 166 0 C 157.714844 0 151 6.714844 151 15 L 151 137 C 151 145.285156 157.714844 152 166 152 L 181 152 L 181 182 L 120 182 L 120 137 C 120 128.714844 113.285156 122 105 122 L 45 122 C 36.714844 122 30 128.714844 30 137 L 30 184.578125 C 12.539062 190.773438 0 207.445312 0 227 L 0 467 C 0 491.8125 20.1875 512 45 512 Z M 181 30 L 331 30 L 331 122 L 181 122 Z M 211 152 L 301 152 L 301 182 L 211 182 Z M 90 152 L 90 182 L 60 182 L 60 152 Z M 30 227 C 30 218.730469 36.730469 212 45 212 L 467 212 C 475.269531 212 482 218.730469 482 227 L 482 467 C 482 475.269531 475.269531 482 467 482 L 45 482 C 36.730469 482 30 475.269531 30 467 Z M 30 227 " data-original="#000000" class="" data-old_color="#000000" fill="#FFFFFF"/>
<path d="M 452 257 C 452 265.285156 445.285156 272 437 272 C 428.714844 272 422 265.285156 422 257 C 422 248.714844 428.714844 242 437 242 C 445.285156 242 452 248.714844 452 257 Z M 452 257 " data-original="#000000" class="" data-old_color="#000000" fill="#FFFFFF"/>
<path d="M 226 91 L 286 91 C 294.285156 91 301 84.285156 301 76 C 301 67.714844 294.285156 61 286 61 L 226 61 C 217.714844 61 211 67.714844 211 76 C 211 84.285156 217.714844 91 226 91 Z M 226 91 " data-original="#000000" class="" data-old_color="#000000" fill="#FFFFFF"/>
<path d="M 120 347 C 120 421.4375 181.007812 482 256 482 C 330.4375 482 391 421.4375 391 347 C 391 272.5625 330.4375 212 256 212 C 181.007812 212 120 272.5625 120 347 Z M 256 242 C 313.898438 242 361 289.101562 361 347 C 361 404.898438 313.898438 452 256 452 C 197.550781 452 150 404.898438 150 347 C 150 289.101562 197.550781 242 256 242 Z M 256 242 " data-original="#000000" class="" data-old_color="#000000" fill="#FFFFFF"/>
<path d="M 256 422 C 297.355469 422 331 388.355469 331 347 C 331 305.644531 297.355469 272 256 272 C 214.644531 272 181 305.644531 181 347 C 181 388.355469 214.644531 422 256 422 Z M 256 302 C 280.8125 302 301 322.1875 301 347 C 301 371.8125 280.8125 392 256 392 C 231.1875 392 211 371.8125 211 347 C 211 322.1875 231.1875 302 256 302 Z M 256 302 " data-original="#000000" class="" data-old_color="#000000" fill="#FFFFFF"/>
</g></g> </svg>
